<svg xmlns="http://www.w3.org/2000/svg" viewBox="0 0 800 1000" width="800" height="1000" role="img" aria-labelledby="t">
  <title id="t">Placeholder suasana — cahaya jendela</title>
  <desc>Placeholder artwork — berkas cahaya sore yang masuk melalui jendela kedai.</desc>
  
  <defs>
    <linearGradient id="warm" x1="0" y1="0" x2="0.7" y2="1">
      <stop offset="0" stop-color="#3B2617"/>
      <stop offset="0.55" stop-color="#5A3828"/>
      <stop offset="1" stop-color="#241711"/>
    </linearGradient>
    <linearGradient id="light" x1="0.1" y1="0" x2="0.9" y2="1">
      <stop offset="0" stop-color="#F7EEDF"/>
      <stop offset="0.5" stop-color="#D8C4A5"/>
      <stop offset="1" stop-color="#B99C74"/>
    </linearGradient>
    <linearGradient id="deep" x1="0" y1="0" x2="0.6" y2="1">
      <stop offset="0" stop-color="#1C110B"/>
      <stop offset="1" stop-color="#0D0705"/>
    </linearGradient>
    <radialGradient id="pool" cx="0.38" cy="0.3" r="0.75">
      <stop offset="0" stop-color="#FFE8C2" stop-opacity="0.6"/>
      <stop offset="0.45" stop-color="#D8C4A5" stop-opacity="0.2"/>
      <stop offset="1" stop-color="#241711" stop-opacity="0"/>
    </radialGradient>
    <radialGradient id="poolDark" cx="0.55" cy="0.28" r="0.7">
      <stop offset="0" stop-color="#E8CFA6" stop-opacity="0.34"/>
      <stop offset="1" stop-color="#241711" stop-opacity="0"/>
    </radialGradient>
    <radialGradient id="crema" cx="0.38" cy="0.3" r="0.8">
      <stop offset="0" stop-color="#5A3319"/>
      <stop offset="0.65" stop-color="#2C160C"/>
      <stop offset="1" stop-color="#150A05"/>
    </radialGradient>
    <radialGradient id="shadow" cx="0.5" cy="0.5" r="0.5">
      <stop offset="0" stop-color="#160C06" stop-opacity="0.5"/>
      <stop offset="1" stop-color="#160C06" stop-opacity="0"/>
    </radialGradient>
    <linearGradient id="sheen" x1="0" y1="0" x2="1" y2="0">
      <stop offset="0" stop-color="#FFFFFF" stop-opacity="0"/>
      <stop offset="0.5" stop-color="#FFFFFF" stop-opacity="0.5"/>
      <stop offset="1" stop-color="#FFFFFF" stop-opacity="0"/>
    </linearGradient>
    <filter id="grain" x="0" y="0" width="100%" height="100%">
      <feTurbulence type="fractalNoise" baseFrequency="0.9" numOctaves="4" stitchTiles="stitch"/>
      <feColorMatrix type="saturate" values="0"/>
    </filter>
    <filter id="blur" x="-40%" y="-40%" width="180%" height="180%">
      <feGaussianBlur stdDeviation="16"/>
    </filter>
    <filter id="soft" x="-40%" y="-40%" width="180%" height="180%">
      <feGaussianBlur stdDeviation="6"/>
    </filter>
  </defs>
  
  <rect width="800" height="1000" fill="url(#warm)"/>
  <g opacity="0.5">
    <path d="M40 1000 300 0h150L190 1000z" fill="#FFE3B4" opacity="0.28" filter="url(#blur)"/>
    <path d="M300 1000 540 0h120L420 1000z" fill="#FFEFCC" opacity="0.2" filter="url(#blur)"/>
    <path d="M560 1000 760 0h70L630 1000z" fill="#FFE3B4" opacity="0.15" filter="url(#blur)"/>
  </g>
  <g stroke="#F2E9D8" stroke-opacity="0.24" stroke-width="3" fill="none">
    <rect x="150" y="90" width="500" height="620" rx="8"/>
    <path d="M400 90v620M150 400h500"/>
  </g>
  <rect x="150" y="90" width="500" height="620" rx="8" fill="#FFE3B4" opacity="0.07"/>
  <rect y="712" width="800" height="288" fill="#160C06" opacity="0.55"/>
  <rect y="712" width="800" height="5" fill="#D8C4A5" opacity="0.3"/>
  <ellipse cx="420" cy="790" rx="300" ry="46" fill="url(#shadow)" filter="url(#blur)"/>
  <circle cx="600" cy="792" r="46" fill="#1A0F08" opacity="0.7"/>
  <rect x="520" y="770" width="160" height="14" rx="7" fill="#1A0F08" opacity="0.6"/>
  <rect width="800" height="1000" filter="url(#grain)" opacity="0.13" style="mix-blend-mode:overlay"/>
  <rect width="800" height="1000" fill="none" stroke="#F2E9D8" stroke-opacity="0.16" stroke-width="2" x="22" y="22" width="756" height="956"/>
</svg>
